<?xml version="1.0" standalone="no"?>
<!DOCTYPE svg PUBLIC "-//W3C//DTD SVG 20010904//EN"
 "http://www.w3.org/TR/2001/REC-SVG-20010904/DTD/svg10.dtd">
<svg version="1.0" xmlns="http://www.w3.org/2000/svg"
 width="200.000000pt" height="200.000000pt" viewBox="0 0 200.000000 200.000000"
 preserveAspectRatio="xMidYMid meet">
<metadata>
Created by potrace 1.11, written by Peter Selinger 2001-2013
</metadata>
<g transform="translate(0.000000,200.000000) scale(0.100000,-0.100000)"
fill="#000000" stroke="none">
<path d="M897 1892 l-37 -7 305 -305 305 -305 0 247 0 247 -72 35 c-112 55
-232 85 -356 90 -59 3 -124 1 -145 -2z"/>
<path d="M698 1846 c-91 -32 -184 -86 -271 -156 -64 -51 -147 -139 -147 -154
0 -3 192 -6 427 -6 l428 0 -170 170 c-93 94 -177 170 -185 170 -8 0 -45 -11
-82 -24z"/>
<path d="M1530 1288 l0 -433 174 174 174 174 -15 51 c-40 134 -126 278 -230
382 -114 114 -103 150 -103 -348z"/>
<path d="M190 1388 c-22 -46 -49 -119 -61 -163 -23 -89 -36 -281 -23 -333 l9
-32 305 305 305 305 -248 0 -248 0 -39 -82z"/>
<path d="M1583 838 c-167 -167 -303 -307 -303 -311 0 -4 109 -6 243 -5 l242 3
43 85 c23 47 51 121 63 165 23 89 35 269 22 328 l-8 37 -302 -302z"/>
<path d="M292 962 l-173 -167 25 -70 c57 -166 114 -257 235 -375 l86 -84 3
217 c1 119 1 313 0 431 l-3 214 -173 -166z"/>
<path d="M520 481 l0 -240 30 -21 c113 -81 389 -139 545 -116 l48 8 -304 304
c-167 167 -307 304 -311 304 -5 0 -8 -108 -8 -239z"/>
<path d="M1031 294 l175 -175 98 35 c53 19 132 56 174 82 72 46 242 202 242
224 0 7 -147 10 -432 10 l-433 0 176 -176z"/>
</g>
</svg>
